<svg height="512" viewBox="0 0 64 64" width="512" xmlns="http://www.w3.org/2000/svg"><g id="s"><g><g><path d="m32 19-8-4v-10l8 4z" fill="#71d6fc"/><path d="m32 19 8-4v-10l-8 4z" fill="#32addb"/><path d="m40 5-8-4-8 4 8 4z" fill="#298bb0"/></g><g fill="#1b498f"><path d="m12 26c-.291 0-.579-.126-.776-.369-.349-.429-.283-1.059.146-1.407l16-13c.428-.348 1.059-.283 1.406.146.349.429.283 1.059-.146 1.407l-16 12.999c-.185.15-.408.224-.63.224z"/><path d="m52 26c-.222 0-.445-.073-.63-.224l-16-13c-.429-.349-.494-.979-.146-1.407.348-.429.979-.492 1.406-.146l16 13c.429.349.494.979.146 1.407-.197.243-.486.369-.776.369z"/></g><g><path d="m9 41-8-4v-10l8 4z" fill="#71d6fc"/><path d="m9 41 8-4v-10l-8 4z" fill="#32addb"/><path d="m17 27-8-4-8 4 8 4z" fill="#298bb0"/></g><g><path d="m55 41-8-4v-10l8 4z" fill="#71d6fc"/><path d="m55 41 8-4v-10l-8 4z" fill="#32addb"/><path d="m63 27-8-4-8 4 8 4z" fill="#298bb0"/></g><g fill="#1b498f"><path d="m29.879 36.657c-1.069 0-2.073-.416-2.829-1.172l-4.243-4.243c-.755-.755-1.171-1.76-1.171-2.828s.416-2.072 1.171-2.828l1.414-1.414c1.511-1.512 4.146-1.512 5.657 0l4.243 4.242c1.56 1.56 1.56 4.098 0 5.657l-1.414 1.414c-.755.756-1.76 1.172-2.828 1.172zm-2.829-11.657c-.534 0-1.037.208-1.415.586l-1.414 1.414c-.377.378-.585.88-.585 1.414s.208 1.036.585 1.414l4.243 4.243c.755.755 2.072.757 2.829 0l1.414-1.414c.78-.78.78-2.049 0-2.829l-4.243-4.242c-.378-.378-.88-.586-1.414-.586z"/><path d="m36.95 38.071c-1.068 0-2.073-.416-2.828-1.172l-4.243-4.242c-1.56-1.56-1.56-4.098 0-5.657l1.414-1.414c1.511-1.513 4.146-1.511 5.657 0l4.243 4.242c1.559 1.56 1.559 4.098 0 5.657l-1.414 1.414c-.755.756-1.76 1.172-2.829 1.172zm-2.829-11.657c-.534 0-1.036.208-1.414.586l-1.414 1.414c-.78.78-.78 2.049 0 2.829l4.243 4.242c.756.756 2.073.756 2.829 0l1.414-1.414c.779-.78.779-2.049 0-2.829l-4.243-4.242c-.378-.378-.88-.586-1.415-.586z"/></g><g fill="#1b498f"><path d="m29 49c-.233 0-.468-.081-.658-.247l-16-13.999c-.416-.364-.458-.996-.094-1.411.364-.416.995-.458 1.411-.095l16 13.999c.416.364.458.996.094 1.411-.198.227-.475.342-.753.342z"/><path d="m35 49c-.278 0-.555-.115-.753-.342-.364-.415-.322-1.047.094-1.411l16-13.999c.416-.364 1.048-.322 1.411.095.364.415.322 1.047-.094 1.411l-16 13.999c-.19.166-.425.247-.658.247z"/></g><g><path d="m32 63-8-4v-10l8 4z" fill="#71d6fc"/><path d="m32 63 8-4v-10l-8 4z" fill="#32addb"/><path d="m40 49-8-4-8 4 8 4z" fill="#298bb0"/></g></g></g></svg>