<svg id="Layer_1" height="512" viewBox="0 0 110 110" width="512" xmlns="http://www.w3.org/2000/svg" data-name="Layer 1"><path d="m95.54 91.18a7.13 7.13 0 0 1 -1.68 2.68 7.2 7.2 0 0 1 -2.68 1.68 6.94 6.94 0 0 1 -2.42.43 7.23 7.23 0 0 1 -5.09-2.11l-1.33-1.34 10.18-10.18 1.34 1.33a7.18 7.18 0 0 1 1.68 7.51z" fill="#9ed26a"/><path d="m82 57.47 13.19 13.19a6.36 6.36 0 0 1 0 9l-15.52 15.53a6.38 6.38 0 0 1 -9 0l-13.2-13.19z" fill="#b4df80"/><path d="m45.17 60.62h41.57v10.68h-41.57z" fill="#e4e8eb" transform="matrix(.707 -.707 .707 .707 -27.32 65.96)"/><path d="m43.23 61.42h41.57v5.18h-41.57z" fill="#f4f6f8" transform="matrix(.707 -.707 .707 .707 -26.51 64.03)"/><path d="m102.1 102.1a3.08 3.08 0 0 1 -4.35 0l-6.57-6.56a7.2 7.2 0 0 0 2.68-1.68 7.13 7.13 0 0 0 1.68-2.68l6.56 6.56a3.09 3.09 0 0 1 0 4.36z" fill="#656d78"/><path d="m17.48 27.66-1.34-1.34a7.2 7.2 0 0 1 0-10.18 7.18 7.18 0 0 1 10.18 0l1.34 1.33z" fill="#656d78"/><path d="m7.9 7.9a3.08 3.08 0 0 1 4.35 0l6.57 6.56a7.2 7.2 0 0 0 -2.68 1.68 7.13 7.13 0 0 0 -1.68 2.68l-6.56-6.56a3.09 3.09 0 0 1 0-4.36z" fill="#434a54"/><path d="m28 52.53-13.2-13.19a6.39 6.39 0 0 1 0-9l15.53-15.54a6.37 6.37 0 0 1 9 0l13.2 13.2z" fill="#fbd277"/><path d="m23.26 38.7h41.57v10.68h-41.57z" fill="#f4f6f8" transform="matrix(.707 -.707 .707 .707 -18.24 44.04)"/><path d="m25.32 43.69h41.57v4.84h-41.57z" fill="#e4e8eb" transform="matrix(.707 -.707 .707 .707 -19.1 46.1)"/><path d="m61.75 51.29-8.75-8.7 4.65-4.59 8.7 8.7a3.25 3.25 0 0 1 -4.6 4.6z" fill="#656d78"/><path d="m46.69 66.35-8.69-8.71 4.6-4.6 8.7 8.71a3.25 3.25 0 0 1 -4.6 4.6z" fill="#656d78"/><path d="m28 53.53a1 1 0 0 1 -.7-.3l-13.2-13.18a7.38 7.38 0 0 1 0-10.43l15.53-15.53a7.38 7.38 0 0 1 10.42 0l13.19 13.19a1 1 0 0 1 0 1.42l-24.54 24.53a1 1 0 0 1 -.7.3zm6.85-39.59a5.34 5.34 0 0 0 -3.85 1.57l-15.49 15.49a5.38 5.38 0 0 0 0 7.59l12.49 12.52 23.12-23.11-12.49-12.49a5.32 5.32 0 0 0 -3.79-1.57z"/><path d="m33.12 63.51a1 1 0 0 1 -.7-.29l-7.56-7.55a1 1 0 0 1 0-1.42l29.4-29.39a1 1 0 0 1 1.41 0l7.55 7.55a1 1 0 0 1 0 1.42l-29.39 29.39a1 1 0 0 1 -.71.29zm-6.12-8.51 6.14 6.14 28-28-6.14-6.14z"/><path d="m27.1 36.73a1 1 0 0 1 -.7-.3 1 1 0 0 1 0-1.41l8.6-8.63a1 1 0 1 1 1.42 1.42l-8.63 8.62a1 1 0 0 1 -.69.3z"/><path d="m64.05 53.24a4.23 4.23 0 0 1 -3.05-1.24l-8.7-8.71a1 1 0 0 1 0-1.41l4.6-4.6a1 1 0 0 1 .71-.29 1 1 0 0 1 .7.29l8.75 8.72a4.25 4.25 0 0 1 0 6 4.23 4.23 0 0 1 -3.01 1.24zm-9.59-10.65 8 8a2.3 2.3 0 0 0 3.18 0 2.22 2.22 0 0 0 0-3.18l-8-8z"/><path d="m49 68.3a4.19 4.19 0 0 1 -3-1.25l-8.71-8.7a1 1 0 0 1 -.29-.71 1 1 0 0 1 .29-.7l4.6-4.61a1 1 0 0 1 1.42 0l8.69 8.67a4.25 4.25 0 0 1 0 6 4.2 4.2 0 0 1 -3 1.3zm-9.6-10.66 8 8a2.31 2.31 0 0 0 3.19 0 2.26 2.26 0 0 0 0-3.19l-8-8z"/><path d="m88.76 97a8.15 8.15 0 0 1 -5.76-2.44l-1.33-1.33a1 1 0 0 1 0-1.42l10.14-10.18a1 1 0 0 1 .71-.29 1 1 0 0 1 .71.29l1.33 1.37a8.22 8.22 0 0 1 0 11.59 8.06 8.06 0 0 1 -3.06 1.92 7.72 7.72 0 0 1 -2.74.49zm-5-4.45.63.63a6.24 6.24 0 0 0 8.77 0 6 6 0 0 0 1.44-2.3 6.23 6.23 0 0 0 -1.45-6.46l-.63-.63z"/><path d="m75.16 98.06a7.32 7.32 0 0 1 -5.16-2.16l-13.24-13.19a1 1 0 0 1 0-1.41l24.54-24.54a1 1 0 0 1 1.41 0l13.19 13.24a7.38 7.38 0 0 1 0 10.42l-15.53 15.48a7.32 7.32 0 0 1 -5.21 2.16zm-16.28-16.06 12.49 12.49a5.37 5.37 0 0 0 7.59 0l15.53-15.49a5.39 5.39 0 0 0 0-7.6l-12.49-12.52z"/><path d="m55 85.43a1 1 0 0 1 -.71-.29l-7.55-7.56a1 1 0 0 1 0-1.41l29.43-29.39a1 1 0 0 1 1.41 0l7.56 7.55a1 1 0 0 1 0 1.41l-29.39 29.4a1 1 0 0 1 -.75.29zm-6.1-8.55 6.1 6.12 28-28-6.12-6.1z"/><path d="m74.27 83.9a1 1 0 0 1 -.7-1.71l8.62-8.63a1 1 0 0 1 1.41 0 1 1 0 0 1 0 1.42l-8.6 8.62a1 1 0 0 1 -.73.3z"/><path d="m99.92 104a4.07 4.07 0 0 1 -2.92-1.19l-6.57-6.56a1 1 0 0 1 .38-1.66 6.05 6.05 0 0 0 3.74-3.74 1 1 0 0 1 .72-.65 1 1 0 0 1 .94.27l6.6 6.53a4.08 4.08 0 0 1 -2.89 7zm-7-8.16 5.55 5.55a2.12 2.12 0 0 0 2.94 0 2.09 2.09 0 0 0 0-3l-5.57-5.49a7.91 7.91 0 0 1 -1.28 1.66 8.18 8.18 0 0 1 -1.66 1.28z"/><path d="m17.48 28.66a1 1 0 0 1 -.71-.29l-1.34-1.37a8.2 8.2 0 0 1 11.57-11.57l1.34 1.34a1 1 0 0 1 0 1.41l-10.16 10.19a1 1 0 0 1 -.7.29zm3.75-13.66a6.2 6.2 0 0 0 -4.38 10.58l.63.64 8.77-8.78-.63-.63a6.18 6.18 0 0 0 -4.39-1.81z"/><path d="m14.46 19.82a1 1 0 0 1 -.71-.29l-6.56-6.53a4.08 4.08 0 0 1 5.81-5.81l6.57 6.56a1 1 0 0 1 -.38 1.66 6.05 6.05 0 0 0 -3.74 3.74 1 1 0 0 1 -.72.65.9.9 0 0 1 -.27.02zm-4.38-11.82a2.06 2.06 0 0 0 -1.47.61 2.09 2.09 0 0 0 0 3l5.55 5.54a7.91 7.91 0 0 1 1.28-1.66 8.18 8.18 0 0 1 1.66-1.28l-5.55-5.6a2.08 2.08 0 0 0 -1.47-.61z"/></svg>