<svg id="Capa_1" enable-background="new 0 0 512 512" height="512" viewBox="0 0 512 512" width="512" xmlns="http://www.w3.org/2000/svg"><g><g><path d="m7.5 206.593v30.5c0 2.761 2.239 5 5 5h210.807c1.956 0 3.732-1.14 4.546-2.919l14.458-31.581h27.377l14.458 31.581c.814 1.778 2.59 2.919 4.546 2.919h210.808c2.761 0 5-2.239 5-5v-30.5z" fill="#fac600"/><path d="m68 237.093v-29.5h-60.5v29.5c0 2.761 2.239 5 5 5h60.5c-2.761 0-5-2.239-5-5z" fill="#e8b800"/><g><path d="m504.5 117.515v-34.922c0-2.761-2.239-5-5-5h-487c-2.761 0-5 2.239-5 5v34.922c0 2.422 1.733 4.52 4.123 4.916 11.845 1.966 20.877 12.259 20.877 24.662s-9.032 22.696-20.877 24.662c-2.39.397-4.123 2.494-4.123 4.916v30.922h497v-30.922c0-2.422-1.733-4.52-4.123-4.916-11.845-1.966-20.877-12.259-20.877-24.662s9.032-22.696 20.877-24.662c2.39-.396 4.123-2.494 4.123-4.916z" fill="#08b865"/></g><path d="m60.5 177.093c-1.657 0-3-1.343-3-3v-63c0-1.657 1.343-3 3-3h7.5v-25.5c0-2.761 2.239-5 5-5h-60.5c-2.761 0-5 2.239-5 5v34.922c0 2.422 1.733 4.52 4.123 4.917 11.845 1.965 20.877 12.258 20.877 24.661s-9.032 22.696-20.877 24.662c-2.39.397-4.123 2.494-4.123 4.917v30.922h60.5v-30.5h-7.5z" fill="#09a755"/><g><g><path d="m266.908 177.093h-34.408c-1.657 0-3-1.343-3-3v-63c0-1.657 1.343-3 3-3h34.408c1.657 0 3 1.343 3 3v63c0 1.657-1.343 3-3 3z" fill="#596c76"/></g><g><path d="m247 174.093v-63c0-1.657 1.343-3 3-3h-17.5c-1.657 0-3 1.343-3 3v63c0 1.657 1.343 3 3 3h17.5c-1.657 0-3-1.343-3-3z" fill="#465a61"/></g><g><path d="m190.5 177.093h-130c-1.657 0-3-1.343-3-3v-63c0-1.657 1.343-3 3-3h130c1.657 0 3 1.343 3 3v63c0 1.657-1.343 3-3 3z" fill="#596c76"/></g><g><path d="m88 174.093v-63c0-1.657 1.343-3 3-3h-30.5c-1.657 0-3 1.343-3 3v63c0 1.657 1.343 3 3 3h30.5c-1.657 0-3-1.343-3-3z" fill="#465a61"/></g><g><path d="m328.439 177.093h-34.408c-1.657 0-3-1.343-3-3v-63c0-1.657 1.343-3 3-3h34.408c1.657 0 3 1.343 3 3v63c0 1.657-1.343 3-3 3z" fill="#596c76"/></g><g><path d="m308.531 174.093v-63c0-1.657 1.343-3 3-3h-17.5c-1.657 0-3 1.343-3 3v63c0 1.657 1.343 3 3 3h17.5c-1.657 0-3-1.343-3-3z" fill="#465a61"/></g><g><path d="m389.969 177.093h-34.408c-1.657 0-3-1.343-3-3v-63c0-1.657 1.343-3 3-3h34.408c1.657 0 3 1.343 3 3v63c0 1.657-1.343 3-3 3z" fill="#596c76"/></g><g><path d="m370.061 174.093v-63c0-1.657 1.343-3 3-3h-17.5c-1.657 0-3 1.343-3 3v63c0 1.657 1.343 3 3 3h17.5c-1.657 0-3-1.343-3-3z" fill="#465a61"/></g><g><path d="m451.5 177.093h-34.408c-1.657 0-3-1.343-3-3v-63c0-1.657 1.343-3 3-3h34.408c1.657 0 3 1.343 3 3v63c0 1.657-1.343 3-3 3z" fill="#596c76"/></g><g><path d="m431.592 174.093v-63c0-1.657 1.343-3 3-3h-17.5c-1.657 0-3 1.343-3 3v63c0 1.657 1.343 3 3 3h17.5c-1.657 0-3-1.343-3-3z" fill="#465a61"/></g></g></g><g><g><g fill="#fac600"><path d="m7.5 429.407c0 2.761 2.239 5 5 5h210.807c1.956 0 3.732-1.14 4.546-2.919l14.458-31.581h-234.811z"/><path d="m284.147 431.488c.814 1.778 2.59 2.919 4.546 2.919h210.807c2.761 0 5-2.239 5-5v-29.5h-234.811z"/></g><path d="m68 429.407v-29.5h-60.5v29.5c0 2.761 2.239 5 5 5h60.5c-2.761 0-5-2.239-5-5z" fill="#e8b800"/><g><path d="m504.5 309.829v-34.922c0-2.761-2.239-5-5-5h-487c-2.761 0-5 2.239-5 5v34.922c0 2.422 1.733 4.52 4.123 4.916 11.845 1.966 20.877 12.259 20.877 24.662s-9.032 22.696-20.877 24.662c-2.39.397-4.123 2.494-4.123 4.916v30.922h497v-30.922c0-2.422-1.733-4.52-4.123-4.916-11.845-1.966-20.877-12.259-20.877-24.662s9.032-22.696 20.877-24.662c2.39-.396 4.123-2.494 4.123-4.916z" fill="#08b865"/></g><path d="m60.5 369.407c-1.657 0-3-1.343-3-3v-63c0-1.657 1.343-3 3-3h7.5v-25.5c0-2.761 2.239-5 5-5h-60.5c-2.761 0-5 2.239-5 5v34.922c0 2.422 1.733 4.52 4.123 4.917 11.845 1.966 20.877 12.259 20.877 24.662s-9.032 22.696-20.877 24.662c-2.39.397-4.123 2.494-4.123 4.917v30.922h60.5v-30.5h-7.5z" fill="#09a755"/><g><g><path d="m266.908 369.407h-34.408c-1.657 0-3-1.343-3-3v-63c0-1.657 1.343-3 3-3h34.408c1.657 0 3 1.343 3 3v63c0 1.657-1.343 3-3 3z" fill="#596c76"/></g><g><path d="m190.5 369.407h-130c-1.657 0-3-1.343-3-3v-63c0-1.657 1.343-3 3-3h130c1.657 0 3 1.343 3 3v63c0 1.657-1.343 3-3 3z" fill="#596c76"/></g><g><path d="m88 366.407v-63c0-1.657 1.343-3 3-3h-30.5c-1.657 0-3 1.343-3 3v63c0 1.657 1.343 3 3 3h30.5c-1.657 0-3-1.343-3-3z" fill="#465a61"/></g><g><path d="m328.439 369.407h-34.408c-1.657 0-3-1.343-3-3v-63c0-1.657 1.343-3 3-3h34.408c1.657 0 3 1.343 3 3v63c0 1.657-1.343 3-3 3z" fill="#596c76"/></g><g><path d="m389.969 369.407h-34.408c-1.657 0-3-1.343-3-3v-63c0-1.657 1.343-3 3-3h34.408c1.657 0 3 1.343 3 3v63c0 1.657-1.343 3-3 3z" fill="#596c76"/></g><g><path d="m451.5 369.407h-34.408c-1.657 0-3-1.343-3-3v-63c0-1.657 1.343-3 3-3h34.408c1.657 0 3 1.343 3 3v63c0 1.657-1.343 3-3 3z" fill="#596c76"/></g><g><path d="m247 366.407v-63c0-1.657 1.343-3 3-3h-17.5c-1.657 0-3 1.343-3 3v63c0 1.657 1.343 3 3 3h17.5c-1.657 0-3-1.343-3-3z" fill="#465a61"/></g><g><path d="m308.531 366.407v-63c0-1.657 1.343-3 3-3h-17.5c-1.657 0-3 1.343-3 3v63c0 1.657 1.343 3 3 3h17.5c-1.657 0-3-1.343-3-3z" fill="#465a61"/></g><g><path d="m370.061 366.407v-63c0-1.657 1.343-3 3-3h-17.5c-1.657 0-3 1.343-3 3v63c0 1.657 1.343 3 3 3h17.5c-1.657 0-3-1.343-3-3z" fill="#465a61"/></g><g><path d="m431.592 366.407v-63c0-1.657 1.343-3 3-3h-17.5c-1.657 0-3 1.343-3 3v63c0 1.657 1.343 3 3 3h17.5c-1.657 0-3-1.343-3-3z" fill="#465a61"/></g></g></g></g><g><path d="m190.5 100.593h-130c-5.79 0-10.5 4.71-10.5 10.5v63c0 5.79 4.71 10.5 10.5 10.5h130c5.79 0 10.5-4.71 10.5-10.5v-63c0-5.789-4.71-10.5-10.5-10.5zm-4.5 69h-121v-54h121z"/><path d="m266.908 100.593h-34.408c-5.79 0-10.5 4.71-10.5 10.5v63c0 5.79 4.71 10.5 10.5 10.5h34.408c5.79 0 10.5-4.71 10.5-10.5v-63c0-5.789-4.71-10.5-10.5-10.5zm-4.5 69h-25.408v-54h25.408z"/><path d="m328.438 100.593h-34.408c-5.79 0-10.5 4.71-10.5 10.5v63c0 5.79 4.71 10.5 10.5 10.5h34.408c5.79 0 10.5-4.71 10.5-10.5v-63c0-5.789-4.709-10.5-10.5-10.5zm-4.5 69h-25.408v-54h25.408z"/><path d="m389.97 100.593h-34.408c-5.79 0-10.5 4.71-10.5 10.5v63c0 5.79 4.71 10.5 10.5 10.5h34.408c5.79 0 10.5-4.71 10.5-10.5v-63c0-5.789-4.71-10.5-10.5-10.5zm-4.5 69h-25.408v-54h25.408z"/><path d="m451.5 100.593h-34.408c-5.79 0-10.5 4.71-10.5 10.5v63c0 5.79 4.71 10.5 10.5 10.5h34.408c5.79 0 10.5-4.71 10.5-10.5v-63c0-5.789-4.71-10.5-10.5-10.5zm-4.5 69h-25.408v-54h25.408z"/><path d="m501.604 129.831c6.023-1 10.396-6.179 10.396-12.315v-34.923c0-6.893-5.607-12.5-12.5-12.5h-487c-6.893 0-12.5 5.607-12.5 12.5v34.922c0 6.137 4.372 11.316 10.396 12.315 8.462 1.404 14.604 8.665 14.604 17.263s-6.142 15.858-14.604 17.263c-6.024.999-10.396 6.179-10.396 12.315v60.422c0 6.893 5.607 12.5 12.5 12.5h210.807c4.875 0 9.336-2.864 11.365-7.297l12.454-27.203h17.747l12.454 27.204c2.03 4.432 6.491 7.296 11.366 7.296h210.807c6.893 0 12.5-5.607 12.5-12.5v-60.422c0-6.136-4.372-11.315-10.396-12.315-8.462-1.404-14.604-8.665-14.604-17.263s6.142-15.859 14.604-17.262zm-4.604 104.762h-8.5v-4.5c0-4.142-3.357-7.5-7.5-7.5s-7.5 3.358-7.5 7.5v4.5h-15v-4.5c0-4.142-3.357-7.5-7.5-7.5s-7.5 3.358-7.5 7.5v4.5h-15v-4.5c0-4.142-3.357-7.5-7.5-7.5s-7.5 3.358-7.5 7.5v4.5h-15v-4.5c0-4.142-3.357-7.5-7.5-7.5s-7.5 3.358-7.5 7.5v4.5h-15v-4.5c0-4.142-3.357-7.5-7.5-7.5s-7.5 3.358-7.5 7.5v4.5h-15v-4.5c0-4.142-3.357-7.5-7.5-7.5s-7.5 3.358-7.5 7.5v4.5h-15v-4.5c0-4.142-3.357-7.5-7.5-7.5s-7.5 3.358-7.5 7.5v4.5h-3.202l-8.927-19.5h215.629zm0-55.869v21.37h-328c-4.142 0-7.5 3.358-7.5 7.5s3.358 7.5 7.5 7.5h61.629l-8.928 19.5h-3.201v-4.5c0-4.142-3.358-7.5-7.5-7.5s-7.5 3.358-7.5 7.5v4.5h-15v-4.5c0-4.142-3.358-7.5-7.5-7.5s-7.5 3.358-7.5 7.5v4.5h-15v-4.5c0-4.142-3.358-7.5-7.5-7.5s-7.5 3.358-7.5 7.5v4.5h-15v-4.5c0-4.142-3.358-7.5-7.5-7.5s-7.5 3.358-7.5 7.5v4.5h-15v-4.5c0-4.142-3.358-7.5-7.5-7.5s-7.5 3.358-7.5 7.5v4.5h-15v-4.5c0-4.142-3.358-7.5-7.5-7.5s-7.5 3.358-7.5 7.5v4.5h-15v-4.5c0-4.142-3.358-7.5-7.5-7.5s-7.5 3.358-7.5 7.5v4.5h-8.5v-19.5h119c4.142 0 7.5-3.358 7.5-7.5s-3.358-7.5-7.5-7.5h-119v-21.37c14.611-3.43 25-16.401 25-31.63 0-15.23-10.389-28.201-25-31.63v-30.37h482v30.37c-14.611 3.43-25 16.4-25 31.63 0 15.229 10.389 28.199 25 31.63z"/><circle cx="30" cy="100.593" r="7.5"/><circle cx="482" cy="100.593" r="7.5"/><circle cx="30" cy="188.593" r="7.5"/><circle cx="482" cy="188.593" r="7.5"/><path d="m499.5 262.407h-43.5c-4.143 0-7.5 3.358-7.5 7.5s3.357 7.5 7.5 7.5h41v30.37c-14.611 3.43-25 16.401-25 31.63 0 15.23 10.389 28.201 25 31.63v21.37h-482v-21.37c14.611-3.43 25-16.4 25-31.63 0-15.229-10.389-28.2-25-31.63v-30.37h406c4.143 0 7.5-3.358 7.5-7.5s-3.357-7.5-7.5-7.5h-408.5c-6.893 0-12.5 5.607-12.5 12.5v34.922c0 6.136 4.372 11.315 10.395 12.315 8.463 1.404 14.605 8.665 14.605 17.263 0 8.599-6.142 15.859-14.604 17.263-6.024.999-10.396 6.178-10.396 12.315v60.422c0 6.893 5.607 12.5 12.5 12.5h210.807c4.875 0 9.336-2.864 11.365-7.296l12.454-27.204h17.747l12.454 27.205c2.03 4.432 6.491 7.295 11.366 7.295h210.807c6.893 0 12.5-5.607 12.5-12.5v-60.422c0-6.137-4.372-11.316-10.396-12.315-8.463-1.404-14.604-8.664-14.604-17.263 0-8.598 6.143-15.858 14.604-17.263 6.023-1 10.396-6.179 10.396-12.315v-34.922c0-6.893-5.607-12.5-12.5-12.5zm-277.798 164.5h-3.202v-4.5c0-4.142-3.358-7.5-7.5-7.5s-7.5 3.358-7.5 7.5v4.5h-15v-4.5c0-4.142-3.358-7.5-7.5-7.5s-7.5 3.358-7.5 7.5v4.5h-15v-4.5c0-4.142-3.358-7.5-7.5-7.5s-7.5 3.358-7.5 7.5v4.5h-15v-4.5c0-4.142-3.358-7.5-7.5-7.5s-7.5 3.358-7.5 7.5v4.5h-15v-4.5c0-4.142-3.358-7.5-7.5-7.5s-7.5 3.358-7.5 7.5v4.5h-15v-4.5c0-4.142-3.358-7.5-7.5-7.5s-7.5 3.358-7.5 7.5v4.5h-15v-4.5c0-4.142-3.358-7.5-7.5-7.5s-7.5 3.358-7.5 7.5v4.5h-8.5v-19.5h215.629zm275.298 0h-8.5v-4.5c0-4.142-3.357-7.5-7.5-7.5s-7.5 3.358-7.5 7.5v4.5h-15v-4.5c0-4.142-3.357-7.5-7.5-7.5s-7.5 3.358-7.5 7.5v4.5h-15v-4.5c0-4.142-3.357-7.5-7.5-7.5s-7.5 3.358-7.5 7.5v4.5h-15v-4.5c0-4.142-3.357-7.5-7.5-7.5s-7.5 3.358-7.5 7.5v4.5h-15v-4.5c0-4.142-3.357-7.5-7.5-7.5s-7.5 3.358-7.5 7.5v4.5h-15v-4.5c0-4.142-3.357-7.5-7.5-7.5s-7.5 3.358-7.5 7.5v4.5h-15v-4.5c0-4.142-3.357-7.5-7.5-7.5s-7.5 3.358-7.5 7.5v4.5h-3.202l-8.927-19.5h215.629z"/><path d="m60.5 292.907c-5.79 0-10.5 4.71-10.5 10.5v63c0 5.79 4.71 10.5 10.5 10.5h130c5.79 0 10.5-4.71 10.5-10.5v-63c0-5.79-4.71-10.5-10.5-10.5zm125.5 69h-121v-54h121z"/><path d="m269.908 324.5c4.143 0 7.5-3.358 7.5-7.5v-13.593c0-5.79-4.71-10.5-10.5-10.5h-34.408c-5.79 0-10.5 4.71-10.5 10.5v63c0 5.79 4.71 10.5 10.5 10.5h34.408c5.79 0 10.5-4.71 10.5-10.5v-14.407c0-4.142-3.357-7.5-7.5-7.5s-7.5 3.358-7.5 7.5v9.907h-25.408v-54h25.408v9.093c0 4.142 3.358 7.5 7.5 7.5z"/><path d="m294.03 292.907c-5.79 0-10.5 4.71-10.5 10.5v63c0 5.79 4.71 10.5 10.5 10.5h34.408c5.79 0 10.5-4.71 10.5-10.5v-63c0-5.79-4.71-10.5-10.5-10.5zm29.908 69h-25.408v-54h25.408z"/><path d="m355.562 292.907c-5.79 0-10.5 4.71-10.5 10.5v63c0 5.79 4.71 10.5 10.5 10.5h34.408c5.79 0 10.5-4.71 10.5-10.5v-63c0-5.79-4.71-10.5-10.5-10.5zm29.908 69h-25.408v-54h25.408z"/><path d="m406.592 303.407v63c0 5.79 4.71 10.5 10.5 10.5h34.408c5.79 0 10.5-4.71 10.5-10.5v-63c0-5.79-4.71-10.5-10.5-10.5h-34.408c-5.79 0-10.5 4.71-10.5 10.5zm15 4.5h25.408v54h-25.408z"/><circle cx="30" cy="292.907" r="7.5"/><circle cx="482" cy="292.907" r="7.5"/><circle cx="30" cy="380.907" r="7.5"/><circle cx="482" cy="380.907" r="7.5"/></g></g></svg>