<svg id="Layer_2" viewBox="0 0 32 32" xmlns="http://www.w3.org/2000/svg"><path d="m30 17c.552 0 1-.448 1-1s-.448-1-1-1h-3v-2h3c.552 0 1-.448 1-1s-.448-1-1-1h-3v-3c0-1.654-1.346-3-3-3h-3v-3c0-.552-.448-1-1-1s-1 .448-1 1v3h-2v-3c0-.552-.448-1-1-1s-1 .448-1 1v3h-2v-3c0-.552-.448-1-1-1s-1 .448-1 1v3h-3c-1.654 0-3 1.346-3 3v3h-3c-.552 0-1 .448-1 1s.448 1 1 1h3v2h-3c-.552 0-1 .448-1 1s.448 1 1 1h3v2h-3c-.552 0-1 .448-1 1s.448 1 1 1h3v3c0 1.654 1.346 3 3 3h3v3c0 .552.448 1 1 1s1-.448 1-1v-3h2v3c0 .552.448 1 1 1s1-.448 1-1v-3h2v3c0 .552.448 1 1 1s1-.448 1-1v-3h3c1.654 0 3-1.346 3-3v-3h3c.552 0 1-.448 1-1s-.448-1-1-1h-3v-2zm-5 7c0 .551-.449 1-1 1h-16c-.551 0-1-.449-1-1v-16c0-.551.449-1 1-1h16c.551 0 1 .449 1 1z" fill="#09474d"/><g fill="#3cacb6"><path d="m10 12c-.552 0-1 .448-1 1v7c0 .552.448 1 1 1s1-.448 1-1v-7c0-.552-.448-1-1-1z"/><path d="m15 15c-1.654 0-3 1.346-3 3s1.346 3 3 3 3-1.346 3-3-1.346-3-3-3zm0 4c-.551 0-1-.449-1-1s.449-1 1-1 1 .449 1 1-.449 1-1 1z"/><path d="m22 12h-4c-.552 0-1 .448-1 1s.448 1 1 1h1v6c0 .552.448 1 1 1s1-.448 1-1v-6h1c.552 0 1-.448 1-1s-.448-1-1-1z"/></g></svg>