<svg enable-background="new 0 0 512 512" viewBox="0 0 512 512" xmlns="http://www.w3.org/2000/svg"><g id="_x32_7_Sql_Code"><g><path d="m400.964 430.616c0 32.177-64.081 58.279-143.087 58.279s-143.087-26.102-143.087-58.279v-65.836h286.174z" fill="#9cc0fd"/><g><path d="m346.673 452.483c-1.926 0-3.73-1.205-4.399-3.125-.846-2.429.437-5.085 2.866-5.931 5.224-1.819 10.132-3.798 14.588-5.886 2.331-1.073 5.104-.082 6.193 2.247s.084 5.104-2.245 6.195c-4.742 2.215-9.948 4.317-15.47 6.241-.508.177-1.026.259-1.533.259z" fill="#5c8ffc"/></g><g><path d="m374.977 439.146c-1.528 0-3.025-.751-3.916-2.129-1.396-2.161-.778-5.044 1.383-6.441 3.541-2.288 6.673-4.694 9.311-7.151 1.879-1.742 4.831-1.642 6.582.237 1.754 1.883 1.647 4.831-.237 6.586-3.034 2.825-6.6 5.568-10.598 8.151-.783.506-1.659.747-2.525.747z" fill="#5c8ffc"/></g><path d="m400.964 368.558c0 32.177-64.081 58.279-143.087 58.279s-143.087-26.101-143.087-58.279v-65.837h286.174z" fill="#fff"/><g><path d="m346.673 390.425c-1.926 0-3.73-1.205-4.399-3.125-.846-2.429.437-5.085 2.866-5.931 5.224-1.819 10.132-3.798 14.588-5.881 2.331-1.087 5.104-.086 6.193 2.242 1.089 2.329.084 5.104-2.245 6.191-4.742 2.22-9.948 4.321-15.47 6.245-.508.177-1.026.259-1.533.259z" fill="#5c8ffc"/></g><g><path d="m374.977 377.089c-1.528 0-3.025-.751-3.916-2.129-1.396-2.161-.778-5.044 1.383-6.441 3.541-2.288 6.673-4.694 9.311-7.151 1.879-1.742 4.831-1.642 6.582.237 1.754 1.883 1.647 4.831-.237 6.586-3.034 2.825-6.6 5.568-10.598 8.151-.783.506-1.659.747-2.525.747z" fill="#5c8ffc"/></g><path d="m400.964 306.501c0 32.177-64.081 58.279-143.087 58.279s-143.087-26.102-143.087-58.279v-65.837h286.174z" fill="#9cc0fd"/><g><path d="m346.673 328.368c-1.926 0-3.73-1.205-4.399-3.125-.846-2.429.437-5.085 2.866-5.931 5.224-1.819 10.132-3.798 14.588-5.886 2.331-1.078 5.104-.082 6.193 2.247s.084 5.104-2.245 6.195c-4.742 2.215-9.948 4.317-15.47 6.241-.508.177-1.026.259-1.533.259z" fill="#5c8ffc"/></g><g><path d="m374.977 315.031c-1.528 0-3.025-.751-3.916-2.129-1.396-2.161-.778-5.044 1.383-6.441 3.541-2.288 6.673-4.694 9.311-7.151 1.879-1.747 4.831-1.642 6.582.237 1.754 1.883 1.647 4.831-.237 6.586-3.034 2.825-6.6 5.568-10.598 8.151-.783.506-1.659.747-2.525.747z" fill="#5c8ffc"/></g><ellipse cx="257.877" cy="240.664" fill="#fff" rx="143.087" ry="58.279"/><path d="m473.073 128.954-22.138 72.277c-6.034 19.699-26.86 30.759-46.559 24.725l-65.473-20.055c-8.301 10.401-14.22 21.881-16.892 34.781-6.072-14.842-8.903-27.995-5.038-41.498l-5.421-1.66c-19.699-6.034-30.759-26.861-24.725-46.56l22.138-72.277c6.034-19.699 26.86-30.759 46.559-24.725l92.825 28.433c19.698 6.033 30.758 26.86 24.724 46.559z" fill="#9cc0fd"/><g><path d="m346.559 154.822c-1.685 0-3.311-.914-4.139-2.515l-14.433-27.842c-1.185-2.283-.293-5.095 1.99-6.277l27.838-14.433c2.293-1.183 5.099-.291 6.279 1.992 1.185 2.283.293 5.095-1.99 6.277l-23.703 12.291 12.288 23.708c1.185 2.283.293 5.095-1.99 6.277-.687.354-1.419.522-2.14.522z" fill="#5c8ffc"/></g><g><path d="m401.366 172.198c-1.685 0-3.311-.914-4.139-2.515-1.185-2.283-.293-5.095 1.99-6.277l23.705-12.291-12.291-23.703c-1.185-2.283-.293-5.095 1.99-6.277 2.297-1.178 5.097-.291 6.279 1.992l14.435 27.838c.569 1.096.678 2.374.305 3.553-.373 1.174-1.199 2.156-2.295 2.725l-27.84 14.433c-.686.354-1.418.522-2.139.522z" fill="#5c8ffc"/></g><g><path d="m363.025 174.804c-.771 0-1.551-.191-2.272-.596-2.245-1.255-3.045-4.094-1.788-6.336l36.162-64.578c1.258-2.243 4.103-3.048 6.341-1.788 2.245 1.255 3.045 4.094 1.788 6.336l-36.162 64.578c-.853 1.525-2.438 2.384-4.069 2.384z" fill="#5c8ffc"/></g><path d="m185.444 42.477 31.909 63.6c8.697 17.334 1.706 38.402-15.628 47.098l-57.614 28.905c1.109 12.478 4.541 24.141 11.107 34.661-13.782-6.158-24.259-13.273-30.405-24.979l-4.77 2.393c-17.334 8.696-38.402 1.706-47.099-15.628l-31.909-63.6c-8.697-17.334-1.706-38.402 15.628-47.098l81.682-40.98c17.334-8.697 38.402-1.706 47.099 15.628z" fill="#9cc0fd"/><g><path d="m171.055 119.615c-1.74 0-3.412-.983-4.21-2.656l-20.451-43.021c-1.103-2.324-.116-5.104 2.208-6.209 2.32-1.096 5.099-.114 6.207 2.206l18.449 38.818 17.305-8.229c2.322-1.096 5.101-.114 6.207 2.206 1.103 2.324.116 5.104-2.208 6.209l-21.511 10.225c-.645.306-1.325.451-1.996.451z" fill="#5c8ffc"/></g><g><path d="m87.725 159.225c-1.74 0-3.412-.983-4.21-2.656-1.103-2.324-.116-5.104 2.208-6.209l10.755-5.113c1.749-.828 3.07-2.293 3.719-4.117s.548-3.794-.284-5.545c-1.717-3.607-6.057-5.154-9.661-3.434-4.001 1.901-8.497 2.129-12.661.646-4.171-1.478-7.514-4.499-9.413-8.497-1.899-3.994-2.129-8.492-.646-12.659 1.481-4.171 4.499-7.514 8.497-9.416l10.755-5.113c2.324-1.092 5.101-.114 6.207 2.206 1.103 2.324.116 5.104-2.208 6.209l-10.755 5.113c-1.749.832-3.07 2.293-3.719 4.121-.648 1.824-.548 3.794.284 5.54.83 1.751 2.293 3.07 4.117 3.721 1.824.646 3.794.55 5.545-.287 8.251-3.916 18.149-.391 22.075 7.851 1.899 3.998 2.129 8.497.646 12.664-1.483 4.171-4.501 7.514-8.499 9.411l-10.753 5.113c-.648.305-1.328.451-1.999.451z" fill="#5c8ffc"/></g><g><path d="m133.41 136.245c-6.198 0-12.152-3.493-14.986-9.448l-10.23-21.524c-3.919-8.247-.4-18.145 7.846-22.07 8.24-3.916 18.142-.396 22.068 7.846l10.232 21.524c3.919 8.247.4 18.145-7.846 22.07-2.287 1.088-4.705 1.602-7.084 1.602zm-10.271-45.328c-1.042 0-2.097.223-3.098.701-3.607 1.715-5.149 6.045-3.432 9.652l10.23 21.524c1.713 3.607 6.043 5.158 9.655 3.434 3.607-1.715 5.147-6.045 3.432-9.652l-10.232-21.524c-1.24-2.606-3.844-4.135-6.555-4.135z" fill="#5c8ffc"/></g><g><path d="m152.11 127.503c-.519 0-1.044-.086-1.56-.268l-19.332-6.873c-2.424-.864-3.691-3.525-2.829-5.95.862-2.42 3.525-3.689 5.95-2.829l19.332 6.873c2.424.864 3.691 3.525 2.829 5.95-.681 1.905-2.475 3.097-4.39 3.097z" fill="#5c8ffc"/></g><path d="m221.518 103.99-31.909-63.6c-9.855-19.644-33.697-27.563-53.351-17.703l-81.683 40.979c-19.648 9.852-27.563 33.695-17.703 53.347l31.909 63.6c9.839 19.613 33.655 27.581 53.349 17.703l.873-.437c2.329 3.581 5.134 6.82 8.523 9.829-13.542 9.536-21.394 20.774-21.394 32.956v189.953c0 35.293 64.898 62.936 147.746 62.936s147.743-27.642 147.743-62.936c0-35.254 0-134.818 0-189.953 0-3.443-.701-6.8-1.903-10.078 22.239 6.412 45.031-6.31 51.67-27.99l22.138-72.279c6.771-22.107-5.706-45.605-27.815-52.378l-92.825-28.434c-22.107-6.782-45.605 5.709-52.376 27.815l-22.137 72.28c-3.068 10.015-2.154 20.301 1.786 29.203-8.538-.634-17.252-1.073-26.28-1.073-42.192 0-79.668 7.196-106.347 18.895-1.06-3.774-1.935-7.667-2.448-11.831l54.73-27.456c19.641-9.85 27.563-33.695 17.704-53.348zm174.788 326.627c0 29.066-63.393 53.62-138.428 53.62-75.037 0-138.43-24.554-138.43-53.62v-39.664c20.77 23.918 74.192 40.542 138.43 40.542s117.658-16.624 138.428-40.542zm0-62.057c0 29.066-63.393 53.62-138.428 53.62-75.037 0-138.43-24.554-138.43-53.62v-39.664c20.77 23.918 74.192 40.542 138.43 40.542s117.658-16.624 138.428-40.542zm0-62.058c0 29.066-63.393 53.62-138.428 53.62-75.037 0-138.43-24.554-138.43-53.62v-43.447c20.77 23.918 74.192 40.545 138.43 40.545s117.658-16.627 138.428-40.544zm-105.027-154.173 22.138-72.279c5.248-17.137 23.467-26.917 40.74-21.638l92.825 28.434c17.199 5.272 26.905 23.549 21.638 40.743l-22.138 72.279c-5.284 17.251-23.487 26.915-40.743 21.634l-65.471-20.055c-1.833-.55-3.814.055-5.006 1.547-5.754 7.21-10.26 14.779-13.478 22.621-2.472-9.557-2.527-17.485-.334-25.145.698-2.443-.687-4.994-3.114-5.736l-5.422-1.66c-17.198-5.274-26.902-23.551-21.635-40.745zm-137.962 68.667c1.858.829 4.057.361 5.413-1.192 1.346-1.547 1.524-3.789.439-5.527-1.765-2.829-3.226-5.813-4.55-8.876 25.583-11.178 62.708-18.357 103.259-18.357 11.093 0 21.908.561 32.324 1.57 5.046 6.11 11.856 10.873 19.984 13.363l1.242.382c-2.263 11.731-.298 24.031 6.273 40.088.719 1.76 2.431 2.893 4.308 2.893 2.225 0 4.119-1.564 4.562-3.712 2.22-10.717 6.825-20.669 14.049-30.335l50.77 15.553c3.171 4.428 4.917 9.059 4.917 13.818 0 29.066-63.393 53.62-138.428 53.62-75.037 0-138.43-24.554-138.43-53.62 0-9.832 7.274-19.143 19.778-27.167 4.049 2.616 8.696 5.088 14.09 7.499zm-11.294-43.08c-1.71.855-2.72 2.67-2.552 4.576.746 8.379 2.502 16.225 5.249 23.467-7.464-4.753-12.425-9.962-15.784-16.362-1.18-2.251-3.952-3.134-6.211-1.997l-4.772 2.393c-15.146 7.585-33.344 1.409-40.845-13.555l-31.909-63.6c-7.548-15.041-1.501-33.296 13.551-40.848l81.683-40.979c15.034-7.55 33.293-1.496 40.847 13.555l31.911 63.6c7.545 15.034 1.491 33.298-13.555 40.847z" fill="#5c8ffc"/></g></g><g id="Layer_1"/></svg>