<svg id="Layer_1" enable-background="new 0 0 512 512" viewBox="0 0 512 512" xmlns="http://www.w3.org/2000/svg"><g clip-rule="evenodd" fill-rule="evenodd"><g><path d="m261.787 311.986h138.105c2.756 0 5.164 1.487 6.468 3.702l29.361 43.146h43.336v15h-47.285v-.016c-2.388-.002-4.734-1.144-6.182-3.266l-29.647-43.566h-134.156zm-33.301-111.969h-116.379c-2.756 0-5.164-1.487-6.468-3.702l-29.36-43.145h-43.336v-15h47.285v.016c2.388.002 4.734 1.144 6.182 3.266l29.646 43.565h112.43zm-21.935 48.486c4.142 0 7.5 3.358 7.5 7.5s-3.358 7.5-7.5 7.5h-168.441c-4.142 0-7.5-3.358-7.5-7.5s3.358-7.5 7.5-7.5zm43.661 78.484h-134.156l-29.646 43.566c-1.448 2.121-3.794 3.263-6.182 3.266v.016h-47.285v-15h43.336l29.36-43.146c1.304-2.215 3.712-3.702 6.468-3.702h138.105zm33.302-141.97h112.429l29.647-43.565c1.448-2.122 3.794-3.264 6.182-3.266v-.016h47.285v15h-43.336l-29.361 43.145c-1.304 2.215-3.712 3.701-6.468 3.701h-116.378zm21.935 78.486c-4.142 0-7.5-3.358-7.5-7.5s3.358-7.5 7.5-7.5h168.441c4.142 0 7.5 3.358 7.5 7.5s-3.358 7.5-7.5 7.5z" fill="#c9f0ff"/><path d="m479.057 341.891c13.5 0 24.443 10.944 24.443 24.443s-10.944 24.443-24.443 24.443-24.443-10.944-24.443-24.443 10.943-24.443 24.443-24.443zm-446.114-220.663c-13.5 0-24.443 10.943-24.443 24.443 0 13.499 10.943 24.443 24.443 24.443 13.499 0 24.443-10.944 24.443-24.443s-10.943-24.443-24.443-24.443zm0 110.332c-13.5 0-24.443 10.943-24.443 24.443s10.943 24.443 24.443 24.443c13.499 0 24.443-10.943 24.443-24.443s-10.943-24.443-24.443-24.443zm0 110.331c-13.5 0-24.443 10.944-24.443 24.443s10.943 24.443 24.443 24.443c13.499 0 24.443-10.944 24.443-24.443s-10.943-24.443-24.443-24.443zm446.114-220.663c13.5 0 24.443 10.943 24.443 24.443 0 13.499-10.944 24.443-24.443 24.443s-24.443-10.944-24.443-24.443 10.943-24.443 24.443-24.443zm0 110.332c13.5 0 24.443 10.943 24.443 24.443s-10.944 24.443-24.443 24.443-24.443-10.943-24.443-24.443 10.943-24.443 24.443-24.443z" fill="#2891fa"/><path d="m479.057 341.891c13.5 0 24.443 10.944 24.443 24.443 0 4.458-1.194 8.637-3.279 12.235-1.916.482-3.921.74-5.987.74-13.499 0-24.443-10.944-24.443-24.443 0-4.458 1.194-8.637 3.279-12.235 1.916-.482 3.921-.74 5.987-.74zm-452.1-219.923c-2.085 3.599-3.279 7.777-3.279 12.235 0 13.499 10.943 24.443 24.443 24.443 2.065 0 4.071-.257 5.986-.74 2.085-3.599 3.279-7.777 3.279-12.235 0-13.5-10.944-24.443-24.443-24.443-2.065 0-4.071.258-5.986.74zm0 110.332c-2.085 3.598-3.279 7.777-3.279 12.235 0 13.5 10.943 24.443 24.443 24.443 2.065 0 4.071-.258 5.986-.74 2.085-3.599 3.279-7.777 3.279-12.235 0-13.499-10.944-24.443-24.443-24.443-2.065 0-4.071.258-5.986.74zm0 110.331c-2.085 3.599-3.279 7.777-3.279 12.235 0 13.499 10.943 24.443 24.443 24.443 2.065 0 4.071-.257 5.986-.74 2.085-3.598 3.279-7.777 3.279-12.235 0-13.5-10.944-24.443-24.443-24.443-2.065 0-4.071.258-5.986.74zm473.264-184.724c-1.916.482-3.921.74-5.987.74-13.499 0-24.443-10.944-24.443-24.443 0-4.458 1.194-8.637 3.279-12.235 1.916-.482 3.921-.74 5.986-.74 13.5 0 24.443 10.943 24.443 24.443.001 4.457-1.193 8.636-3.278 12.235zm0 110.331c-1.916.482-3.921.74-5.987.74-13.499 0-24.443-10.943-24.443-24.443 0-4.458 1.194-8.637 3.279-12.235 1.916-.482 3.921-.74 5.986-.74 13.5 0 24.443 10.943 24.443 24.443.001 4.458-1.193 8.636-3.278 12.235z" fill="#43a2ff"/></g><g><path d="m371.414 371.415c0 18.693-51.673 33.847-115.415 33.847s-115.415-15.154-115.415-33.847v-230.83c0-18.693 51.673-33.847 115.415-33.847s115.415 15.154 115.415 33.847z" fill="#3b3b6b"/><path d="m371.414 371.415c0 2.468-.909 4.873-2.619 7.191-105.063-31.321-181.672-128.655-181.672-243.897 0-7.236.319-14.396.911-21.479 19.065-4.081 42.554-6.491 67.965-6.491 63.742 0 115.415 15.153 115.415 33.847z" fill="#45467e"/><path d="m140.585 294.472c0 44.301 230.83 44.301 230.83 0v-76.942c0 44.622-230.83 44.147-230.83 0v29.176z" fill="#32325b"/><ellipse cx="255.999" cy="140.585" fill="#32325b" rx="115.415" ry="33.847"/><path d="m275.231 327.276c50.631-2.195 96.184-13.125 96.184-32.804v-76.943c0 27.829-89.781 38.116-157.358 31.209 15.098 30.069 35.967 56.74 61.174 78.538z" fill="#3b3b6b"/><path d="m371.414 140.585c0-18.693-51.673-33.847-115.415-33.847-25.411 0-48.899 2.41-67.965 6.491-.592 7.083-.911 14.243-.911 21.479 0 11.36.755 22.542 2.198 33.507 18.831 3.915 41.837 6.217 66.678 6.217 63.742.001 115.415-15.153 115.415-33.847z" fill="#3b3b6b"/><path d="m256 197.223c8.66 0 15.682 7.021 15.682 15.682 0 8.66-7.021 15.682-15.682 15.682s-15.682-7.021-15.682-15.682 7.021-15.682 15.682-15.682zm0 153.887c8.66 0 15.682 7.021 15.682 15.682s-7.021 15.682-15.682 15.682-15.682-7.021-15.682-15.682 7.021-15.682 15.682-15.682zm0-76.943c8.66 0 15.682 7.021 15.682 15.682 0 8.66-7.021 15.682-15.682 15.682s-15.682-7.021-15.682-15.682 7.021-15.682 15.682-15.682z" fill="#58d561"/><path d="m256 197.223c8.66 0 15.682 7.021 15.682 15.682 0 8.66-7.021 15.682-15.682 15.682s-15.682-7.021-15.682-15.682 7.021-15.682 15.682-15.682zm-3.34 107.949c-4.292-4.755-8.402-9.676-12.33-14.746-.007-.192-.012-.385-.012-.579 0-8.66 7.021-15.682 15.682-15.682 8.66 0 15.682 7.021 15.682 15.682s-7.021 15.682-15.682 15.682c-1.146.001-2.264-.123-3.34-.357z" fill="#6ce75a"/><path d="m338.375 194.155c4.331-1.372 8.956 1.027 10.328 5.358s-1.027 8.956-5.358 10.328c-4.94 1.57-10.32 3.003-16.07 4.277-5.878 1.303-11.95 2.423-18.142 3.339-4.51.659-8.701-2.462-9.36-6.971-.659-4.51 2.461-8.701 6.971-9.36 6.198-.916 11.876-1.949 16.982-3.081 5.306-1.175 10.21-2.477 14.649-3.89zm0 153.888c4.331-1.372 8.956 1.027 10.328 5.358s-1.027 8.956-5.358 10.328c-4.94 1.57-10.32 3.003-16.07 4.277-5.878 1.303-11.95 2.423-18.142 3.339-4.51.659-8.701-2.461-9.36-6.971s2.461-8.699 6.971-9.36c6.198-.917 11.876-1.95 16.982-3.08 5.306-1.177 10.21-2.48 14.649-3.891zm-133.121 6.97c4.51.659 7.631 4.851 6.971 9.36-.659 4.51-4.849 7.632-9.36 6.971-6.192-.917-12.263-2.036-18.143-3.339-5.751-1.273-11.13-2.707-16.07-4.277-4.331-1.372-6.73-5.997-5.358-10.328s5.997-6.73 10.328-5.358c4.44 1.411 9.343 2.715 14.649 3.891 5.108 1.13 10.787 2.163 16.983 3.08zm133.121-83.914c4.331-1.372 8.956 1.027 10.328 5.358s-1.027 8.956-5.358 10.328c-4.94 1.57-10.32 3.003-16.07 4.277-5.878 1.303-11.95 2.423-18.142 3.339-4.51.659-8.701-2.462-9.36-6.971-.659-4.51 2.461-8.699 6.971-9.36 6.198-.917 11.876-1.95 16.982-3.082 5.306-1.175 10.21-2.478 14.649-3.889zm-133.121 6.972c4.51.659 7.631 4.851 6.971 9.36-.659 4.509-4.849 7.631-9.36 6.971-6.192-.917-12.263-2.037-18.143-3.339-5.751-1.275-11.13-2.707-16.07-4.277-4.331-1.372-6.73-5.997-5.358-10.328s5.997-6.73 10.328-5.358c4.44 1.411 9.343 2.714 14.649 3.889 5.108 1.131 10.787 2.163 16.983 3.082zm0-76.945c4.51.659 7.631 4.851 6.971 9.36-.659 4.509-4.849 7.63-9.36 6.971-6.192-.917-12.263-2.037-18.143-3.339-5.751-1.273-11.13-2.707-16.07-4.277-4.331-1.372-6.73-5.997-5.358-10.328s5.997-6.73 10.328-5.358c4.44 1.411 9.343 2.715 14.649 3.889 5.108 1.133 10.787 2.166 16.983 3.082z" fill="#ffc328"/><path d="m338.375 194.155c4.331-1.372 8.956 1.026 10.328 5.357s-1.027 8.956-5.358 10.328c-4.94 1.57-10.32 3.003-16.071 4.277-5.878 1.303-11.949 2.423-18.142 3.339-4.51.659-8.701-2.462-9.36-6.971-.659-4.51 2.462-8.701 6.971-9.36 6.198-.917 11.876-1.949 16.982-3.082 5.307-1.173 10.211-2.475 14.65-3.888zm-2.96 171.876c-7.833-3.601-15.448-7.592-22.827-11.942 3.964-.67 7.683-1.391 11.139-2.156 5.305-1.176 10.209-2.48 14.649-3.891 4.331-1.372 8.956 1.027 10.328 5.358s-1.027 8.956-5.358 10.328c-2.531.805-5.178 1.574-7.931 2.303zm-134.634-148.891c-1.981-5.788-3.755-11.671-5.322-17.638 3.101.575 6.37 1.117 9.796 1.624 4.509.659 7.631 4.851 6.971 9.36-.659 4.509-4.849 7.63-9.36 6.971-.697-.103-1.392-.208-2.085-.317zm137.594 53.959c4.331-1.372 8.956 1.027 10.328 5.358s-1.027 8.956-5.358 10.328c-4.94 1.57-10.32 3.003-16.071 4.277-5.878 1.302-11.949 2.422-18.142 3.339-4.51.659-8.701-2.462-9.36-6.971s2.462-8.699 6.971-9.36c6.198-.917 11.876-1.951 16.982-3.082 5.307-1.175 10.211-2.478 14.65-3.889z" fill="#ffd54f"/></g></g></svg>