<svg enable-background="new 0 0 512 512" viewBox="0 0 512 512" xmlns="http://www.w3.org/2000/svg"><g id="_x32_5_Server"><g><g><path d="m448.874 59.665v40.595c0 6.096-2.422 11.942-6.732 16.252l-21.942 21.943c-4.31 4.31-10.156 6.732-16.252 6.732h-295.895c-6.096 0-11.942-2.422-16.252-6.732l-21.942-21.942c-4.31-4.31-6.732-10.156-6.732-16.252v-40.596c0-6.096 2.422-11.942 6.732-16.252l21.942-21.942c4.31-4.31 10.156-6.732 16.252-6.732h295.895c6.096 0 11.942 2.422 16.252 6.732l21.942 21.942c4.311 4.311 6.732 10.157 6.732 16.252z" fill="#bad0e6"/></g><g><path d="m148.06 79.96c0 10.612-8.597 19.217-19.21 19.217-10.612 0-19.217-8.605-19.217-19.217s8.605-19.21 19.217-19.21c10.613 0 19.21 8.598 19.21 19.21z" fill="#fff"/></g><g><path d="m204.171 79.96c0 10.612-8.597 19.217-19.21 19.217-10.612 0-19.217-8.605-19.217-19.217s8.605-19.21 19.217-19.21 19.21 8.598 19.21 19.21z" fill="#fff"/></g><g><path d="m402.367 79.952c0 10.622-8.608 19.23-19.208 19.23h-56.119c-10.6 0-19.208-8.608-19.208-19.23 0-10.6 8.608-19.208 19.208-19.208h56.119c10.6 0 19.208 8.608 19.208 19.208z" fill="#fff"/></g><g><path d="m121.698 145.187h268.605v30.393h-268.605z" fill="#fff"/></g><g><path d="m448.874 220.506v40.595c0 6.096-2.422 11.942-6.732 16.252l-21.942 21.942c-4.31 4.31-10.156 6.732-16.252 6.732h-295.895c-6.096 0-11.942-2.422-16.252-6.732l-21.942-21.942c-4.31-4.31-6.732-10.156-6.732-16.252v-40.595c0-6.096 2.422-11.942 6.732-16.252l21.942-21.942c4.31-4.31 10.156-6.732 16.252-6.732h295.895c6.096 0 11.942 2.422 16.252 6.732l21.942 21.942c4.311 4.31 6.732 10.156 6.732 16.252z" fill="#392b9e"/></g><g><path d="m128.85 264.842c-13.255 0-24.041-10.784-24.041-24.041 0-13.253 10.786-24.034 24.041-24.034s24.037 10.781 24.037 24.034c0 13.258-10.782 24.041-24.037 24.041zm0-38.425c-7.935 0-14.391 6.453-14.391 14.384 0 7.935 6.456 14.391 14.391 14.391 7.931 0 14.386-6.456 14.386-14.391 0-7.93-6.455-14.384-14.386-14.384z" fill="#fff"/></g><g><path d="m184.962 264.842c-13.255 0-24.041-10.784-24.041-24.041 0-13.253 10.786-24.034 24.041-24.034 13.251 0 24.032 10.781 24.032 24.034 0 13.258-10.781 24.041-24.032 24.041zm0-38.425c-7.935 0-14.391 6.453-14.391 14.384 0 7.935 6.456 14.391 14.391 14.391 7.931 0 14.381-6.456 14.381-14.391.001-7.93-6.45-14.384-14.381-14.384z" fill="#fff"/></g><g><path d="m383.159 264.847h-56.117c-13.255 0-24.037-10.791-24.037-24.055 0-13.251 10.781-24.032 24.037-24.032h56.117c13.25 0 24.032 10.781 24.032 24.032 0 13.264-10.781 24.055-24.032 24.055zm-56.117-38.437c-7.931 0-14.386 6.451-14.386 14.381 0 7.942 6.456 14.405 14.386 14.405h56.117c7.931 0 14.381-6.463 14.381-14.405 0-7.931-6.451-14.381-14.381-14.381z" fill="#fff"/></g><g><path d="m121.698 306.027h268.605v30.393h-268.605z" fill="#fff"/></g><g><path d="m448.874 381.347v40.595c0 6.096-2.422 11.942-6.732 16.252l-21.942 21.942c-4.31 4.31-10.156 6.732-16.252 6.732h-295.895c-6.096 0-11.942-2.422-16.252-6.732l-21.942-21.942c-4.31-4.31-6.732-10.156-6.732-16.252v-40.595c0-6.096 2.422-11.942 6.732-16.252l21.942-21.942c4.31-4.31 10.156-6.732 16.252-6.732h295.895c6.096 0 11.942 2.422 16.252 6.732l21.942 21.942c4.311 4.31 6.732 10.156 6.732 16.252z" fill="#bad0e6"/></g><g><path d="m148.06 401.641c0 10.612-8.597 19.217-19.21 19.217-10.612 0-19.217-8.605-19.217-19.217s8.605-19.21 19.217-19.21c10.613.001 19.21 8.598 19.21 19.21z" fill="#fff"/></g><g><path d="m204.171 401.641c0 10.612-8.597 19.217-19.21 19.217-10.612 0-19.217-8.605-19.217-19.217s8.605-19.21 19.217-19.21c10.612.001 19.21 8.598 19.21 19.21z" fill="#fff"/></g><g><path d="m402.367 401.633c0 10.622-8.608 19.23-19.208 19.23h-56.119c-10.6 0-19.208-8.608-19.208-19.23 0-10.6 8.608-19.208 19.208-19.208h56.119c10.6 0 19.208 8.608 19.208 19.208z" fill="#fff"/></g><path d="m423.613 18.056c-5.254-5.249-12.237-8.143-19.664-8.143h-295.898c-7.426 0-14.41 2.893-19.664 8.145l-21.94 21.942c-5.254 5.255-8.147 12.238-8.147 19.664v40.595c0 7.431 2.893 14.414 8.147 19.664l21.94 21.942c5.254 5.254 12.237 8.147 19.664 8.147h8.821v20.743h-8.821c-7.426 0-14.41 2.893-19.664 8.145l-21.94 21.942c-5.254 5.254-8.147 12.237-8.147 19.664v40.595c0 7.429 2.893 14.414 8.147 19.664l21.94 21.942c5.254 5.252 12.237 8.145 19.664 8.145h8.821v20.743h-8.821c-7.426 0-14.41 2.893-19.664 8.147l-21.94 21.94c-5.254 5.252-8.147 12.235-8.147 19.666v40.595c0 7.426 2.893 14.41 8.147 19.664l21.94 21.944c5.254 5.249 12.237 8.143 19.664 8.143h8.821v25.568c0 2.665 2.158 4.825 4.825 4.825s4.825-2.16 4.825-4.825v-25.568h258.955v25.568c0 2.665 2.158 4.825 4.825 4.825s4.825-2.16 4.825-4.825v-25.568h8.821c7.426 0 14.41-2.893 19.664-8.145l21.94-21.942c5.254-5.254 8.147-12.237 8.147-19.664v-40.595c0-7.431-2.893-14.414-8.147-19.664l-21.94-21.942c-5.254-5.254-12.237-8.147-19.664-8.147h-8.821v-20.743h8.821c7.426 0 14.41-2.893 19.664-8.145l21.94-21.94c5.254-5.252 8.147-12.237 8.147-19.666v-40.595c0-7.426-2.893-14.41-8.147-19.664l-21.94-21.942c-5.254-5.252-12.237-8.145-19.664-8.145h-8.821v-20.743h8.821c7.426 0 14.41-2.893 19.664-8.147l21.94-21.94c5.254-5.252 8.147-12.235 8.147-19.666v-40.595c0-7.426-2.893-14.41-8.147-19.664zm-6.823 328.509 21.94 21.944c3.383 3.379 5.32 8.058 5.32 12.838v40.595c0 4.849-1.89 9.41-5.32 12.841l-21.94 21.94c-3.383 3.381-8.062 5.32-12.841 5.32-109.307 0-128.271 0-295.898 0-4.778 0-9.457-1.939-12.841-5.318l-21.94-21.942c-3.43-3.43-5.32-7.992-5.32-12.841v-40.595c0-4.78 1.937-9.46 5.32-12.841l21.94-21.942c3.383-3.381 8.062-5.32 12.841-5.32h295.898c4.778.001 9.457 1.94 12.841 5.321zm-31.312-14.971h-258.956v-20.743h258.955v20.743zm31.312-145.871 21.94 21.942c3.43 3.43 5.32 7.992 5.32 12.841v40.595c0 4.78-1.937 9.46-5.32 12.841l-21.94 21.942c-3.43 3.428-7.992 5.318-12.841 5.318-109.307 0-128.271 0-295.898 0-4.849 0-9.41-1.89-12.841-5.318l-21.94-21.944c-3.383-3.379-5.32-8.058-5.32-12.838v-40.595c0-4.849 1.89-9.41 5.32-12.841l21.94-21.942c3.43-3.428 7.992-5.318 12.841-5.318h295.898c4.849 0 9.41 1.889 12.841 5.317zm-31.312-14.968h-258.956v-20.743h258.955v20.743zm58.571-70.496c0 4.851-1.89 9.41-5.32 12.841l-21.94 21.942c-3.383 3.381-8.062 5.32-12.841 5.32-50.201 0-215.07 0-295.898 0-4.778 0-9.457-1.939-12.841-5.32l-21.94-21.944c-3.43-3.428-5.32-7.987-5.32-12.838v-40.596c0-4.849 1.89-9.41 5.32-12.841l21.94-21.94c3.383-3.381 8.062-5.32 12.841-5.32h295.898c4.778 0 9.457 1.939 12.841 5.318l21.94 21.942c3.43 3.43 5.32 7.992 5.32 12.841z"/><path d="m128.85 55.925c-13.255 0-24.041 10.781-24.041 24.034 0 13.258 10.786 24.044 24.041 24.044s24.037-10.786 24.037-24.044c0-13.252-10.782-24.034-24.037-24.034zm0 38.428c-7.935 0-14.391-6.456-14.391-14.393 0-7.931 6.456-14.384 14.391-14.384 7.931 0 14.386 6.453 14.386 14.384 0 7.937-6.455 14.393-14.386 14.393z"/><path d="m184.962 55.925c-13.255 0-24.041 10.781-24.041 24.034 0 13.258 10.786 24.044 24.041 24.044 13.251 0 24.032-10.786 24.032-24.044 0-13.252-10.781-24.034-24.032-24.034zm0 38.428c-7.935 0-14.391-6.456-14.391-14.393 0-7.931 6.456-14.384 14.391-14.384 7.931 0 14.381 6.453 14.381 14.384.001 7.937-6.45 14.393-14.381 14.393z"/><path d="m402.366 75.127c-2.667 0-4.825 2.161-4.825 4.825 0 7.942-6.451 14.405-14.381 14.405h-56.117c-7.931 0-14.386-6.463-14.386-14.405 0-7.931 6.456-14.384 14.386-14.384h56.117c2.667 0 4.825-2.161 4.825-4.825 0-2.665-2.158-4.825-4.825-4.825h-56.117c-13.255 0-24.037 10.781-24.037 24.034 0 13.265 10.781 24.055 24.037 24.055h56.117c13.25 0 24.032-10.791 24.032-24.055-.001-2.664-2.159-4.825-4.826-4.825z"/><path d="m128.85 377.606c-13.255 0-24.041 10.784-24.041 24.037 0 13.258 10.786 24.041 24.041 24.041s24.037-10.784 24.037-24.041c0-13.253-10.782-24.037-24.037-24.037zm0 38.427c-7.935 0-14.391-6.456-14.391-14.391 0-7.933 6.456-14.386 14.391-14.386 7.931 0 14.386 6.453 14.386 14.386 0 7.936-6.455 14.391-14.386 14.391z"/><path d="m184.962 377.606c-13.255 0-24.041 10.784-24.041 24.037 0 13.258 10.786 24.041 24.041 24.041 13.251 0 24.032-10.784 24.032-24.041 0-13.253-10.781-24.037-24.032-24.037zm0 38.427c-7.935 0-14.391-6.456-14.391-14.391 0-7.933 6.456-14.386 14.391-14.386 7.931 0 14.381 6.453 14.381 14.386.001 7.936-6.45 14.391-14.381 14.391z"/><path d="m327.042 416.038c-7.931 0-14.386-6.463-14.386-14.405 0-7.931 6.456-14.381 14.386-14.381h56.117c2.667 0 4.825-2.16 4.825-4.825s-2.158-4.825-4.825-4.825h-56.117c-13.255 0-24.037 10.781-24.037 24.032 0 13.265 10.781 24.055 24.037 24.055h56.117c13.25 0 24.032-10.791 24.032-24.055 0-2.665-2.158-4.825-4.825-4.825s-4.825 2.16-4.825 4.825c0 7.942-6.451 14.405-14.381 14.405h-56.118z"/></g></g><g id="Layer_1"/></svg>